<svg version="1.1" id="Layer_1" xmlns="http://www.w3.org/2000/svg" xmlns:xlink="http://www.w3.org/1999/xlink" x="0px" y="0px"
	 width="100%" viewBox="0 0 150 145" enable-background="new 0 0 150 145" xml:space="preserve">
<path fill="#FDFEFE" opacity="1.000000" stroke="none" 
	d="
M1.000000,47.000000 
	C1.000000,32.166668 1.059463,17.832821 0.935888,3.500553 
	C0.917353,1.350826 1.353563,0.935575 3.500100,0.939098 
	C51.833302,1.018416 100.166695,1.018416 148.499893,0.939098 
	C150.646439,0.935575 151.064651,1.353533 151.060974,3.500105 
	C150.980942,50.166634 150.980942,96.833366 151.060974,143.499893 
	C151.064651,145.646469 150.646439,146.064423 148.499893,146.060898 
	C100.166695,145.981583 51.833160,145.950104 3.500397,146.115845 
	C0.383649,146.126526 1.006571,144.654404 1.006140,143.000000 
	C0.997842,111.166664 1.000000,79.333336 1.000000,47.000000 
z"/>
<path fill="#323A3F" opacity="1.000000" stroke="none" 
	d="
M112.785797,32.804077 
	C123.643356,42.943703 130.877319,54.560894 133.462677,69.179832 
	C139.374542,102.608543 112.132294,135.145218 78.119553,136.265686 
	C49.278614,137.215790 22.889233,116.771927 18.512102,87.564552 
	C15.287235,66.045914 22.212801,47.921341 38.940304,33.329369 
	C38.989559,31.949511 39.401989,31.002705 40.286598,30.489365 
	C47.662865,26.208904 54.971695,21.749310 63.872612,20.837807 
	C64.719215,20.999363 65.352905,20.869949 66.191208,20.578884 
	C66.936325,20.121300 67.594208,20.609392 68.414108,20.205702 
	C70.721390,20.465939 72.775719,20.840321 74.004456,17.948944 
	C74.830544,21.734123 78.499512,19.806202 81.466019,20.377895 
	C82.473801,20.167896 83.049835,20.160772 83.858536,20.596331 
	C85.177284,20.908270 86.247437,21.059788 87.855515,21.154949 
	C89.063004,20.161184 90.002945,20.241169 91.306641,20.534126 
	C97.360786,23.270235 103.426086,25.171942 108.586540,28.920816 
	C110.044563,29.980017 111.798264,30.711273 112.785797,32.804077 
z"/>
<path fill="#353D41" opacity="1.000000" stroke="none" 
	d="
M36.359413,21.711040 
	C37.434353,20.261028 36.583622,19.418663 36.095280,18.622280 
	C35.223690,17.200901 34.120800,15.625372 35.643196,14.201978 
	C37.345581,12.610296 39.233536,13.090343 40.974197,14.536721 
	C41.716110,15.153202 42.667877,15.517133 43.526653,15.997159 
	C44.878983,14.061440 40.794262,11.321991 44.649296,10.005692 
	C46.824589,9.262937 46.985889,11.224099 47.968224,12.667133 
	C48.533798,13.482869 49.090393,13.707754 49.849308,14.178831 
	C50.232944,14.519999 50.370701,14.676939 50.680603,15.100599 
	C51.064301,15.747321 51.260128,16.135315 51.578835,16.844078 
	C51.781994,17.381876 51.849850,17.605219 51.980625,18.179031 
	C51.239277,24.236488 49.549286,25.087547 44.068077,22.172932 
	C43.529007,21.596300 43.370819,21.222612 43.428539,20.769146 
	C43.126358,21.171305 43.224277,21.517822 43.729214,22.142826 
	C44.269573,25.078640 43.559498,26.874971 40.165684,26.854914 
	C37.765915,26.011906 37.772194,23.766750 36.359413,21.711040 
z"/>
<path fill="#353C40" opacity="1.000000" stroke="none" 
	d="
M101.659058,12.284636 
	C103.053558,11.294791 102.398766,8.813476 104.784912,9.320690 
	C108.874199,10.189935 107.488556,14.044588 108.717789,16.615261 
	C111.111610,16.356096 109.913895,11.617744 113.389656,13.018410 
	C115.348663,13.807853 115.359077,14.957218 114.188522,16.789454 
	C112.917313,18.874363 113.717125,21.012421 112.903618,22.869652 
	C112.097015,24.711138 111.588776,26.847958 108.988846,26.697672 
	C106.734100,26.567339 105.434761,25.142971 104.744370,23.049606 
	C104.434959,22.111439 104.541962,21.072697 104.006905,20.200598 
	C104.278175,19.595882 102.978363,19.910469 103.644249,19.942701 
	C103.928772,19.956472 103.856689,20.098763 103.812622,20.422003 
	C103.503983,22.685883 101.930527,23.017630 100.160942,22.644753 
	C98.358574,22.264967 97.912918,20.742931 98.116264,19.146475 
	C98.439835,16.606176 99.538284,14.389094 101.659058,12.284636 
z"/>
<path fill="#F1F3F4" opacity="1.000000" stroke="none" 
	d="
M101.591743,11.992888 
	C101.174278,13.997376 100.388306,15.991194 99.666885,18.008102 
	C99.160553,19.423697 97.568550,20.965620 100.190842,22.066250 
	C102.768921,23.148312 102.771454,20.921230 103.525925,19.630161 
	C103.772636,19.207979 103.999580,18.774246 104.516083,17.836491 
	C105.009407,19.322248 105.626251,20.409157 105.687408,21.526484 
	C105.810394,23.773603 106.596466,25.626947 108.917137,25.764217 
	C111.716415,25.929796 111.600586,23.098026 111.945740,21.449286 
	C112.254868,19.972620 112.943680,18.716249 113.680481,17.211704 
	C114.336487,17.709455 114.637100,18.316639 115.249619,19.086779 
	C115.629616,22.372419 113.819763,25.307199 114.506012,28.820305 
	C114.009537,30.207708 113.642517,31.279499 113.103210,32.741798 
	C105.620163,28.151051 98.058434,23.692083 88.945084,21.411047 
	C88.925713,20.453857 89.339775,19.828922 89.977333,19.680899 
	C94.321877,18.672211 97.150513,15.901669 99.483582,12.004992 
	C100.341782,11.977808 100.796295,11.984944 101.591743,11.992888 
z"/>
<path fill="#F1F3F4" opacity="1.000000" stroke="none" 
	d="
M42.979424,20.821930 
	C44.021706,21.082996 44.830807,21.354395 45.490494,21.832117 
	C47.132843,23.021452 48.765312,23.470078 50.485100,22.067020 
	C52.421375,20.487352 50.197735,19.099930 50.588989,17.285259 
	C55.053608,18.144073 59.177784,19.563986 63.546074,16.726215 
	C63.962181,17.738483 64.033302,18.704021 64.094978,20.399166 
	C55.352886,23.748026 46.910503,26.969620 39.430996,32.945610 
	C37.919033,32.436596 36.727928,31.837099 35.231133,31.104538 
	C34.457760,29.012066 35.651146,27.597652 36.827400,25.838108 
	C37.614712,25.406038 38.114296,25.376741 38.966766,25.676197 
	C42.642429,26.731920 44.341408,26.085791 42.524200,21.880445 
	C42.480385,21.302244 42.579315,21.114206 42.979424,20.821930 
z"/>
<path fill="#3D4346" opacity="1.000000" stroke="none" 
	d="
M74.144157,16.848400 
	C74.028641,17.329538 73.978897,17.424862 73.880890,17.556423 
	C72.418968,18.015617 70.666603,18.664181 69.444847,17.584270 
	C68.478409,16.730043 70.114868,15.702957 70.398346,14.338490 
	C69.127228,12.149082 71.769295,10.177098 70.232880,8.009360 
	C70.200920,6.574450 68.375504,5.653918 69.488182,4.612008 
	C70.033783,4.101111 71.849846,4.011665 72.293289,4.482584 
	C74.715775,7.055142 76.846802,5.937168 79.193192,4.471400 
	C79.774895,4.108014 80.776726,4.417153 82.814636,4.417153 
	C78.581062,9.167665 77.240585,13.560039 83.477371,17.460384 
	C80.078918,18.167221 77.991920,18.637230 76.535088,16.241716 
	C75.788307,15.013756 74.976959,15.381857 74.144157,16.848400 
z"/>
<path fill="#353B40" opacity="1.000000" stroke="none" 
	d="
M114.688148,29.344933 
	C112.599854,25.869673 112.692200,22.777855 115.399307,19.582325 
	C120.870712,17.125080 124.870499,18.183229 126.602875,22.170763 
	C128.094696,25.604565 126.362526,29.605555 122.712914,31.269367 
	C119.689011,32.647923 117.247574,31.577370 114.688148,29.344933 
z"/>
<path fill="#333C3E" opacity="1.000000" stroke="none" 
	d="
M63.933167,16.360737 
	C58.739155,21.243935 56.278290,21.298576 51.301754,17.005630 
	C50.935123,16.966917 50.980560,17.019833 51.014503,17.027821 
	C50.607002,16.591904 50.529816,15.991702 50.179565,15.197023 
	C49.999157,14.962790 49.987911,14.999319 50.006954,15.000925 
	C49.637360,14.560097 49.494179,14.048900 49.954315,13.256901 
	C51.182201,8.738318 53.656437,6.277246 58.571968,6.175793 
	C59.537006,6.089657 60.084461,6.193198 60.789368,6.733359 
	C64.000351,9.270708 64.966896,12.287597 63.933167,16.360737 
z"/>
<path fill="#373D41" opacity="1.000000" stroke="none" 
	d="
M37.385094,25.680134 
	C37.136528,27.746944 36.510647,29.200994 35.062824,30.652245 
	C29.646656,32.877121 23.888186,29.679184 22.417681,24.124914 
	C22.062414,22.783024 22.952120,22.370287 23.705151,21.882099 
	C24.453955,21.396654 25.411394,20.532064 26.011354,22.142160 
	C26.122425,22.440243 26.287714,22.820173 26.537663,22.948217 
	C28.444477,23.925026 28.729321,28.402813 31.372976,26.594700 
	C33.916813,24.854866 30.080158,23.319532 29.506628,21.520023 
	C29.026537,20.013693 27.984144,18.471098 30.153362,17.296606 
	C32.290455,16.139505 32.619797,18.015049 33.467644,19.091671 
	C34.082336,19.872223 34.730881,20.626118 35.728600,21.233345 
	C36.092873,21.074791 36.046947,21.050774 36.031742,21.029793 
	C36.939816,22.300087 37.774368,23.622896 37.385094,25.680134 
z"/>
<path fill="#353D40" opacity="1.000000" stroke="none" 
	d="
M99.878296,11.572945 
	C96.995461,19.818151 96.995461,19.818151 88.812057,20.490177 
	C88.611008,21.055267 88.381447,21.022079 88.387436,21.060337 
	C88.654510,20.520519 89.296005,19.616764 89.120857,19.412172 
	C85.117508,14.736136 87.426880,10.157416 89.598038,5.384374 
	C96.765053,5.119828 91.937035,10.324215 93.436310,12.691742 
	C94.594032,11.140225 94.316559,8.961039 95.909958,7.279576 
	C99.094887,6.953176 100.755386,7.918770 99.878296,11.572945 
z"/>
<path fill="#F1F3F4" opacity="1.000000" stroke="none" 
	d="
M95.830254,6.909749 
	C95.728424,9.344016 95.311874,11.604595 94.760391,13.831764 
	C94.478203,14.971448 93.908859,16.150953 92.418152,15.729950 
	C90.996826,15.328545 90.995720,14.196046 91.323624,12.933208 
	C91.773384,11.201038 91.956520,9.392445 92.492134,7.691618 
	C93.132004,5.659740 91.428444,6.158462 90.281952,5.454446 
	C90.357941,4.280719 91.118042,3.983828 92.204407,3.952700 
	C93.395584,4.866966 94.427628,5.794597 95.830254,6.909749 
z"/>
<path fill="#F1F3F4" opacity="1.000000" stroke="none" 
	d="
M69.964378,8.129642 
	C72.569984,9.470299 73.576401,11.416046 70.691956,13.914299 
	C68.492897,12.416169 68.869202,10.521585 69.964378,8.129642 
z"/>
<path fill="#F1F3F4" opacity="1.000000" stroke="none" 
	d="
M60.968445,6.625484 
	C60.444275,6.816070 59.882507,6.711390 59.134491,6.383334 
	C59.712532,5.012463 60.379105,5.002724 60.968445,6.625484 
z"/>
<path fill="#F1F3F4" opacity="1.000000" stroke="none" 
	d="
M84.012909,20.424118 
	C83.480721,20.728838 82.854324,20.700924 82.058228,20.505901 
	C82.457779,19.374107 83.096802,18.982239 84.012909,20.424118 
z"/>
<path fill="#F1F3F4" opacity="1.000000" stroke="none" 
	d="
M49.955032,13.028543 
	C50.406082,13.531772 50.499920,14.018701 50.309875,14.754081 
	C48.581932,15.706641 48.800449,14.140805 48.190872,13.330427 
	C48.644875,12.994723 49.121349,13.003483 49.955032,13.028543 
z"/>
<path fill="#353D40" opacity="1.000000" stroke="none" 
	d="
M92.415924,3.901505 
	C92.363548,3.939335 92.578300,4.124961 92.637527,4.028082 
	C92.696762,3.931204 92.614174,3.666119 92.614174,3.666119 
	C92.614174,3.666119 92.468307,3.863674 92.415924,3.901505 
z"/>
<path fill="#F1F3F4" opacity="1.000000" stroke="none" 
	d="
M68.132195,20.235691 
	C68.097160,20.473360 67.477905,20.695667 66.627235,20.667603 
	C66.779869,20.351597 67.163925,20.285963 68.132195,20.235691 
z"/>
<path fill="#FAFBFB" opacity="1.000000" stroke="none" 
	d="
M66.193558,66.245338 
	C60.846355,72.100899 55.276951,71.769295 49.202427,68.154060 
	C46.286896,66.418900 41.617554,66.839180 40.155838,63.702656 
	C37.516472,58.039169 35.992245,51.848797 34.114250,45.843456 
	C33.714832,44.566212 34.967052,43.755474 35.713833,42.920994 
	C41.221310,36.766739 47.744701,32.042522 55.388519,28.836580 
	C57.091656,28.122255 58.496780,27.830200 59.901993,29.224819 
	C60.135818,29.456882 60.416698,29.644892 60.688961,29.834394 
	C75.103813,39.867443 75.526894,40.798149 73.818283,58.665890 
	C73.391151,63.132603 68.778900,63.423954 66.193558,66.245338 
z"/>
<path fill="#FBFCFC" opacity="1.000000" stroke="none" 
	d="
M95.550964,28.492371 
	C103.807365,31.675215 110.372231,36.619587 116.155365,42.742680 
	C117.838745,44.525021 118.526360,46.198620 117.290756,48.510296 
	C116.675217,49.661896 116.122536,50.996193 116.062080,52.272507 
	C115.398849,66.276192 103.894539,67.743492 94.173225,71.202972 
	C93.448639,71.460823 92.250092,70.856026 91.456512,70.358040 
	C89.505089,69.133492 87.796127,67.462151 85.749893,66.460098 
	C78.755013,63.034664 78.058678,57.326157 77.821480,50.170284 
	C77.546646,41.878689 79.703232,36.186451 87.267509,32.731415 
	C90.030602,31.469351 91.597626,28.039412 95.550964,28.492371 
z"/>
<path fill="#FBFCFC" opacity="1.000000" stroke="none" 
	d="
M90.236755,95.547623 
	C89.020943,88.347229 91.793915,81.047447 95.850136,76.546692 
	C99.799355,72.164665 107.729424,71.330566 113.974754,69.116776 
	C114.626411,68.885773 115.765076,69.770073 116.573380,70.297058 
	C117.964371,71.203949 119.270081,72.241203 120.616920,73.216370 
	C131.110413,80.814072 131.169312,80.990211 127.358109,93.583603 
	C123.073105,107.742615 122.687698,107.760651 108.500931,108.146729 
	C102.687210,108.304932 98.261086,107.197807 95.262962,101.900490 
	C94.131889,99.902008 92.373627,98.258499 90.625931,96.217896 
	C90.395813,95.817619 90.441040,95.652626 90.236755,95.547623 
z"/>
<path fill="#FBFCFC" opacity="1.000000" stroke="none" 
	d="
M57.194405,101.167793 
	C53.784985,107.729538 48.422878,108.478378 41.993862,108.260674 
	C29.657900,107.842964 29.631447,108.143578 25.410631,96.566864 
	C20.437063,82.925507 21.035980,82.159302 32.335564,73.245926 
	C37.140499,69.455688 40.837364,69.806717 46.159187,71.630486 
	C53.832520,74.260101 58.404861,78.151833 60.536903,86.485023 
	C62.082027,92.524231 62.222984,96.863853 57.194405,101.167793 
z"/>
<path fill="#FBFBFB" opacity="1.000000" stroke="none" 
	d="
M77.904289,96.983711 
	C84.097984,95.776634 87.068901,99.230576 90.679558,103.030579 
	C95.887436,108.511589 96.870453,113.500191 94.060890,120.589569 
	C90.058044,130.689972 90.175720,131.213120 79.207939,131.844376 
	C63.129101,132.769791 57.754349,128.250565 55.671890,112.255608 
	C55.493191,110.883080 55.924870,110.040718 56.645393,109.129395 
	C57.572227,107.957115 58.724712,106.912308 59.424820,105.620155 
	C63.359661,98.357857 69.309151,95.443153 77.904289,96.983711 
z"/>
<path fill="#0EA4E1" opacity="1.000000" stroke="none" 
	d="
M87.782410,74.774414 
	C88.025948,74.994820 88.363052,75.014908 88.520401,75.076172 
	C90.401550,76.117958 88.852928,77.195732 88.602402,78.547684 
	C87.955429,79.686737 87.426163,80.479362 86.853790,81.663330 
	C85.949417,84.367363 86.264084,86.996986 84.670822,89.484390 
	C80.365486,91.865013 76.224922,90.424309 71.758591,90.135086 
	C71.151077,89.994164 70.916519,89.917610 70.366028,89.661026 
	C69.520004,88.993210 69.248863,88.365211 69.007217,87.379425 
	C68.891197,86.880005 68.844757,86.684723 68.699554,86.216095 
	C68.065834,84.978455 66.975876,84.944336 65.883362,84.275558 
	C65.505531,83.879005 65.388649,83.684029 65.174774,83.153961 
	C64.687820,80.621902 64.482574,78.435379 65.650467,76.004585 
	C67.032585,74.465225 68.471092,73.447006 69.251564,71.406448 
	C69.638084,70.892815 69.822052,70.707436 70.355209,70.335983 
	C73.323250,69.361382 76.009483,69.739105 79.064087,69.711754 
	C80.755821,69.905388 81.953926,70.297516 83.093674,71.574379 
	C83.984528,73.907936 86.129768,73.653961 87.782410,74.774414 
z"/>
<path fill="#CEE6EA" opacity="1.000000" stroke="none" 
	d="
M50.760723,113.757233 
	C52.706017,118.362183 54.313484,122.783020 56.253357,128.118042 
	C52.943165,126.689079 50.205894,126.387962 48.578125,123.562119 
	C48.627644,120.825272 48.756451,118.405144 48.944210,115.613419 
	C49.100437,115.004364 49.189693,114.766586 49.504807,114.218994 
	C49.961411,113.797150 50.192154,113.685127 50.760723,113.757233 
z"/>
<path fill="#DDF1F4" opacity="1.000000" stroke="none" 
	d="
M28.161238,55.500946 
	C27.922424,53.123440 29.360027,52.088432 30.369772,49.561836 
	C32.113846,54.744247 33.485153,58.970852 34.963627,63.159626 
	C35.974121,66.022537 33.728004,66.860497 31.759605,68.273056 
	C31.216269,68.423645 30.998093,68.410995 30.592478,68.130737 
	C30.175303,67.252480 30.122616,66.619850 30.211380,65.673119 
	C30.422163,64.608513 30.551334,63.843914 30.264381,62.781502 
	C30.043045,61.913364 29.962095,61.318996 29.826986,60.424126 
	C29.617737,58.672935 29.063328,57.355877 28.161238,55.500946 
z"/>
<path fill="#DBEFF3" opacity="1.000000" stroke="none" 
	d="
M69.942085,69.539055 
	C73.710022,65.121704 77.467903,63.976006 81.699509,68.946732 
	C81.939346,70.263802 81.224724,70.478989 79.928268,70.482445 
	C76.784744,70.481285 74.050400,70.493919 70.905212,70.445572 
	C70.270813,70.254074 70.047287,70.094070 69.942085,69.539055 
z"/>
<path fill="#CCF3F9" opacity="1.000000" stroke="none" 
	d="
M102.952026,123.736969 
	C101.582787,125.817749 99.320732,126.013359 96.998970,127.592468 
	C97.155304,122.712532 98.959579,119.137390 100.413712,115.140060 
	C100.845032,114.747406 101.047287,114.631683 101.575096,114.644562 
	C104.634689,117.323624 100.733620,119.907654 102.167587,122.700417 
	C102.536102,123.102638 102.676598,123.270279 102.952026,123.736969 
z"/>
<path fill="#DDF4F3" opacity="1.000000" stroke="none" 
	d="
M50.905273,113.542046 
	C50.904831,113.959999 50.711109,113.978653 50.226822,114.025543 
	C48.535782,115.355743 46.773373,115.260315 44.711403,115.339172 
	C43.193714,115.324837 42.352924,115.772507 41.927536,117.283257 
	C41.693649,117.763733 41.580151,117.946709 41.208183,118.323364 
	C38.556667,117.551567 37.296841,115.503899 35.242252,113.142738 
	C40.949852,113.142738 45.830929,113.142738 50.905273,113.542046 
z"/>
<path fill="#CFEDF1" opacity="1.000000" stroke="none" 
	d="
M64.564293,84.500427 
	C63.789680,83.212242 63.528320,81.716530 62.885845,80.407921 
	C60.858490,76.278564 62.258793,73.570366 66.517601,71.601028 
	C67.053154,71.596954 67.252335,71.760315 67.609406,72.275803 
	C67.873268,73.130508 67.875061,73.633179 67.604004,74.467178 
	C63.601501,76.817284 66.198669,80.360390 65.418213,83.471497 
	C65.212181,84.011047 65.057663,84.194778 64.564293,84.500427 
z"/>
<path fill="#CFEDF1" opacity="1.000000" stroke="none" 
	d="
M70.222870,91.751190 
	C64.300224,92.899796 66.219765,87.664917 64.378281,84.924637 
	C64.408028,84.538277 64.642525,84.518028 65.228699,84.478912 
	C66.042885,84.491737 66.505859,84.512131 67.309799,84.544647 
	C68.934677,85.099068 68.877151,86.295242 69.138161,87.687027 
	C69.351028,88.171631 69.472672,88.347549 69.855881,88.709244 
	C70.117439,88.895027 70.001221,89.000191 70.057030,88.945335 
	C70.388283,89.271080 70.588661,89.688492 70.718582,90.487854 
	C70.626900,91.055130 70.541008,91.272163 70.222870,91.751190 
z"/>
<path fill="#D4ECF0" opacity="1.000000" stroke="none" 
	d="
M102.494522,115.161804 
	C101.784042,115.026871 101.555496,114.996368 100.984863,114.914497 
	C100.792801,113.601402 101.235222,112.649521 102.748085,112.652924 
	C106.558304,112.661499 110.378021,112.469276 114.176155,112.679245 
	C117.835381,112.881531 115.519531,114.458122 114.316208,115.832275 
	C111.592590,116.482979 109.412674,114.561180 106.695328,115.557503 
	C105.785240,115.780441 105.173210,115.852493 104.263000,115.805229 
	C103.615822,115.651306 103.280792,115.489288 102.494522,115.161804 
z"/>
<path fill="#D3F1F9" opacity="1.000000" stroke="none" 
	d="
M28.137215,70.694260 
	C26.484255,72.368607 24.068323,72.313683 23.125813,74.769066 
	C22.766872,74.511200 22.407932,74.253334 22.048992,73.995468 
	C22.683237,70.933998 23.317480,67.872520 24.067852,64.429245 
	C26.176044,64.067734 25.837585,65.806862 26.378429,67.254112 
	C26.228712,69.016083 27.638336,69.449471 28.137215,70.694260 
z"/>
<path fill="#CFF0F7" opacity="1.000000" stroke="none" 
	d="
M124.325600,69.460617 
	C122.916336,69.291412 121.932739,68.397820 120.783882,67.852112 
	C117.130409,66.116745 116.412453,63.528847 118.496750,59.773880 
	C119.705200,59.831215 119.952133,60.748318 120.537758,61.814804 
	C121.161072,62.853268 121.663170,63.572746 122.450104,64.497978 
	C123.547798,66.031174 124.871208,67.094345 124.325600,69.460617 
z"/>
<path fill="#CFEDF1" opacity="1.000000" stroke="none" 
	d="
M81.107773,30.821274 
	C78.128098,35.334805 74.716568,35.789829 70.885071,31.391796 
	C70.881668,30.606026 71.113457,30.194515 71.753052,29.655966 
	C72.946114,29.119217 73.826248,29.176706 74.950104,29.741299 
	C75.648712,30.249466 76.062103,30.655931 76.973915,30.433731 
	C78.047821,30.082483 78.863297,30.011610 80.012062,30.177044 
	C80.522766,30.355495 80.715729,30.458145 81.107773,30.821274 
z"/>
<path fill="#B3DDE6" opacity="1.000000" stroke="none" 
	d="
M70.254257,30.697990 
	C68.079376,29.439289 65.441879,28.716293 64.740875,25.920645 
	C66.893372,24.316336 69.073822,24.454269 71.638931,24.656734 
	C72.031387,24.761675 72.054916,24.941635 72.008026,25.019329 
	C72.092339,25.276348 72.223534,25.455673 72.291992,25.961143 
	C71.338455,27.548113 71.264038,29.153612 70.254257,30.697990 
z"/>
<path fill="#BFEFF6" opacity="1.000000" stroke="none" 
	d="
M103.432327,123.993576 
	C102.886116,124.015244 102.685265,123.994469 102.183243,123.941360 
	C100.806664,121.397415 103.123268,120.471054 104.498306,118.735695 
	C105.258575,118.272858 105.737679,118.101723 106.622169,117.938156 
	C107.523895,117.852219 108.040207,117.878708 108.930603,118.061935 
	C109.535736,118.288330 109.763947,118.413605 110.226448,118.851280 
	C108.447693,121.059120 106.429306,122.947121 103.432327,123.993576 
z"/>
<path fill="#ABE0E9" opacity="1.000000" stroke="none" 
	d="
M110.748840,119.084198 
	C110.214760,119.138832 109.968773,119.113976 109.354958,119.041748 
	C108.702759,118.724731 108.472076,118.415863 108.250862,117.768875 
	C108.203743,117.294884 108.210899,117.112480 108.274429,116.684372 
	C108.330803,116.438675 108.502594,116.036972 108.502594,116.036972 
	C108.502594,116.036972 108.176537,115.744469 107.932846,115.780060 
	C107.332062,115.819405 106.982071,115.768578 106.375046,115.551826 
	C105.988014,115.274162 105.863052,115.123634 105.871063,114.711525 
	C108.672623,113.560921 111.181763,113.604362 113.652466,115.874100 
	C112.989418,117.030907 112.013176,118.017815 110.748840,119.084198 
z"/>
<path fill="#A3E3F3" opacity="1.000000" stroke="none" 
	d="
M26.000832,67.885750 
	C25.323484,66.843468 24.989407,65.653030 24.419651,64.255020 
	C24.256271,60.783821 26.186930,58.179878 27.601814,55.107433 
	C27.908834,54.931000 27.964085,54.933727 27.983980,54.952942 
	C28.770975,55.773998 28.969749,56.773624 29.000629,58.213287 
	C28.216799,61.168243 27.079157,63.651333 26.873411,66.759094 
	C26.618734,67.321579 26.481417,67.529594 26.000832,67.885750 
z"/>
<path fill="#D6E6ED" opacity="1.000000" stroke="none" 
	d="
M85.685303,81.179230 
	C85.974205,79.815491 86.703941,79.527351 87.673828,79.097969 
	C88.136024,78.867195 88.331139,78.749107 88.771378,78.869667 
	C88.201279,81.976852 87.386055,84.845390 86.344513,88.008202 
	C84.905731,86.171181 85.767128,83.863792 85.685303,81.179230 
z"/>
<path fill="#3799BD" opacity="1.000000" stroke="none" 
	d="
M49.701225,114.791183 
	C49.791470,117.698982 51.004040,120.503845 48.956650,123.161400 
	C48.303257,123.218063 48.027256,123.187424 47.342949,123.074356 
	C46.337128,122.262749 45.693615,121.557770 45.728615,120.203552 
	C47.550297,118.562981 46.998104,116.792664 47.034439,114.846413 
	C47.991417,114.497162 48.701397,114.512047 49.701225,114.791183 
z"/>
<path fill="#DBF5F8" opacity="1.000000" stroke="none" 
	d="
M88.058273,74.643784 
	C86.225151,74.016190 83.251450,77.129677 82.585373,73.139084 
	C83.476479,72.475723 83.276344,71.735710 83.806274,70.958511 
	C85.194008,72.160141 87.602760,72.133461 88.058273,74.643784 
z"/>
<path fill="#ABE0E9" opacity="1.000000" stroke="none" 
	d="
M85.604630,81.083199 
	C85.896759,82.927185 85.976028,85.143623 86.086746,87.831268 
	C86.034470,88.992546 85.950745,89.682617 85.813484,90.717293 
	C85.943916,91.283707 86.127876,91.505524 85.882584,91.676529 
	C84.858208,91.885338 84.263100,92.144958 83.353058,92.275566 
	C82.884468,91.979538 82.730820,91.812531 82.518639,91.309875 
	C82.554344,90.519066 82.769791,90.134422 83.462860,89.788841 
	C86.076012,87.317772 83.720154,84.000206 85.604630,81.083199 
z"/>
<path fill="#CCDDE4" opacity="1.000000" stroke="none" 
	d="
M120.200424,56.149178 
	C120.382065,54.156395 120.798325,52.411900 121.234161,50.585350 
	C123.203934,51.508507 123.560966,53.180996 124.179214,55.040146 
	C123.580521,55.724529 123.055733,56.162315 122.098732,56.513168 
	C121.309418,56.634544 120.864548,56.565613 120.200424,56.149178 
z"/>
<path fill="#2998C3" opacity="1.000000" stroke="none" 
	d="
M70.205566,31.023821 
	C70.625191,29.362949 68.893867,27.217360 71.604202,25.960936 
	C73.246475,25.261709 74.595161,25.606962 76.293854,25.561628 
	C76.866631,25.770332 77.053673,25.941986 77.249870,26.488514 
	C76.123512,28.611160 73.571350,27.944286 72.282005,30.010979 
	C71.835785,30.524673 71.543861,30.720234 70.997437,30.993814 
	C70.742935,31.071833 70.372231,31.106779 70.205566,31.023821 
z"/>
<path fill="#A5EDFB" opacity="1.000000" stroke="none" 
	d="
M77.322067,26.384850 
	C75.617706,26.096695 74.217216,26.022030 72.396416,25.900311 
	C71.976097,25.853254 71.971016,25.475094 71.966080,25.286058 
	C74.011276,25.010672 76.061409,24.924318 78.548157,24.786812 
	C80.386559,24.274395 81.780052,23.629009 83.570450,24.844852 
	C83.896957,25.146284 83.953964,25.052277 83.902992,25.072859 
	C84.035378,25.266983 84.218742,25.440525 84.407715,25.992947 
	C84.234245,26.868401 83.907227,27.231815 83.065231,27.549702 
	C80.964722,27.500038 79.226349,27.385910 77.322067,26.384850 
z"/>
<path fill="#E6FEFF" opacity="1.000000" stroke="none" 
	d="
M82.557968,90.857407 
	C82.933670,91.159119 82.991005,91.652267 83.014565,91.899414 
	C81.629555,92.221230 80.220978,92.295898 78.398209,92.460632 
	C77.822968,92.491844 77.661926,92.432976 77.261932,92.469238 
	C76.257874,92.509750 75.492760,92.455132 74.351570,92.486511 
	C73.817322,92.506393 73.659149,92.440262 73.260376,92.464905 
	C72.253242,92.462730 71.486710,92.369774 70.355400,92.144997 
	C69.990616,92.013176 70.017487,91.574265 70.012543,91.354446 
	C73.953407,88.577774 78.144386,91.176559 82.557968,90.857407 
z"/>
<path fill="#3799BD" opacity="1.000000" stroke="none" 
	d="
M77.023560,26.357622 
	C78.770836,25.946739 80.537872,25.580423 82.489548,26.863258 
	C83.686768,27.845346 83.127388,28.758245 82.992691,29.986828 
	C82.586746,30.595041 82.197624,30.856211 81.557686,31.099567 
	C81.313576,30.849482 81.320290,30.617212 81.200348,30.060221 
	C79.684433,29.228376 78.582771,28.257170 77.214249,27.181656 
	C77.047302,26.916117 77.028931,26.543886 77.023560,26.357622 
z"/>
<path fill="#DCE8ED" opacity="1.000000" stroke="none" 
	d="
M127.851570,66.800400 
	C129.248138,67.981567 129.045486,69.563194 129.088699,71.005898 
	C129.207138,74.959877 127.411644,72.283279 126.024399,71.446701 
	C125.807045,70.744408 125.830208,70.353958 125.925171,69.672058 
	C126.075584,68.988571 126.200394,68.606964 126.493744,67.962067 
	C126.894424,67.364235 127.200523,67.092644 127.851570,66.800400 
z"/>
<path fill="#274A54" opacity="1.000000" stroke="none" 
	d="
M83.898346,24.807831 
	C82.527580,25.073427 81.158211,25.000570 79.386795,24.831686 
	C80.552078,23.336308 82.008949,19.898203 83.898346,24.807831 
z"/>
<path fill="#64B6D0" opacity="1.000000" stroke="none" 
	d="
M28.339481,70.931198 
	C28.012531,69.399048 24.857525,71.027962 25.634193,68.326294 
	C25.657562,68.033897 25.855253,67.979759 25.956545,67.964172 
	C26.999157,67.158020 28.064251,66.952950 29.619028,67.475327 
	C30.145058,67.919060 30.292984,68.163162 30.313946,68.816147 
	C29.665663,69.775764 29.144346,70.326500 28.339481,70.931198 
z"/>
<path fill="#7CC3E9" opacity="1.000000" stroke="none" 
	d="
M119.723816,56.122620 
	C120.365364,55.891506 120.764931,55.882118 121.464020,55.847527 
	C121.942528,55.994339 122.121506,56.166359 122.339333,56.708862 
	C121.603882,58.878506 121.414757,60.879570 120.178497,62.848488 
	C119.547943,62.135227 119.205811,61.192337 118.801544,59.868645 
	C118.986885,58.440010 119.234360,57.392174 119.723816,56.122620 
z"/>
<path fill="#274A54" opacity="1.000000" stroke="none" 
	d="
M71.729538,24.541643 
	C69.951408,25.094528 67.871422,25.427383 65.404327,25.757364 
	C66.545898,22.556158 69.204956,24.414927 71.729538,24.541643 
z"/>
<path fill="#C9E8EF" opacity="1.000000" stroke="none" 
	d="
M41.065788,118.847183 
	C40.949722,118.517036 40.948330,118.560539 40.956436,118.542244 
	C41.106068,117.976204 41.449528,117.624283 42.385418,117.443909 
	C43.577957,117.560860 44.270294,117.921867 45.134857,118.739777 
	C45.565117,119.819000 45.535320,120.599556 45.271004,121.698853 
	C43.759167,121.070465 42.470512,120.123901 41.065788,118.847183 
z"/>
<path fill="#DBF5F8" opacity="1.000000" stroke="none" 
	d="
M83.229507,30.143929 
	C81.309174,29.633324 82.067123,28.646147 82.743172,27.355839 
	C83.130806,26.836760 83.437195,26.640102 83.867340,26.195358 
	C84.144325,25.838192 84.297554,25.729107 84.720047,25.704340 
	C85.161270,25.817900 85.333252,25.847145 85.752747,25.961288 
	C86.157143,26.296282 86.314018,26.546381 86.382057,27.230318 
	C85.356529,28.427435 84.419846,29.190710 83.229507,30.143929 
z"/>
<path fill="#9ED7EB" opacity="1.000000" stroke="none" 
	d="
M83.930817,70.499390 
	C83.882645,71.390846 83.712593,72.037216 83.228600,72.810364 
	C82.615623,71.843605 81.920013,71.163483 80.495193,70.894852 
	C79.985413,70.794136 79.789017,70.715401 79.744247,70.357841 
	C80.448784,69.918594 81.001686,69.758171 81.753143,69.387894 
	C82.570778,69.536789 83.189865,69.895546 83.930817,70.499390 
z"/>
<path fill="#69B1CE" opacity="1.000000" stroke="none" 
	d="
M89.285538,78.937225 
	C88.835442,79.104874 88.654396,79.101448 88.207123,79.041656 
	C88.225494,77.918442 88.510078,76.851601 88.736206,75.461098 
	C92.828728,75.414597 88.921768,77.638863 89.285538,78.937225 
z"/>
<path fill="#D3F1F9" opacity="1.000000" stroke="none" 
	d="
M125.375267,58.068333 
	C126.160919,59.444809 126.586075,60.848049 127.004807,62.622604 
	C126.632317,63.326759 126.198692,63.492516 125.360367,63.412582 
	C124.843384,63.136444 124.673523,62.963608 124.347427,62.461487 
	C124.062241,61.661388 123.991295,61.181664 123.989868,60.330441 
	C124.135841,59.230579 124.415886,58.577221 125.375267,58.068333 
z"/>
<path fill="#B8E2EA" opacity="1.000000" stroke="none" 
	d="
M125.030045,63.090321 
	C125.692520,62.919575 126.065552,62.942844 126.718483,62.980019 
	C128.405579,63.607628 127.911835,64.973427 128.176819,66.381371 
	C127.965660,67.056206 127.777283,67.379700 127.358505,67.870155 
	C125.845818,67.256119 125.675369,65.755745 124.802750,64.304855 
	C124.700974,63.747238 124.720795,63.515785 125.030045,63.090321 
z"/>
<path fill="#B8E2EA" opacity="1.000000" stroke="none" 
	d="
M67.567177,73.357338 
	C67.180672,73.016670 67.113380,72.700539 66.950043,71.908997 
	C67.732597,70.708710 68.611214,69.983826 69.775124,69.201492 
	C70.060417,69.144051 70.062775,69.629105 70.047104,69.871124 
	C70.207756,70.248810 70.384071,70.384476 70.421143,70.823395 
	C70.281898,71.126648 70.119186,71.569725 70.059570,71.798080 
	C69.377045,72.605492 68.783905,73.230988 67.567177,73.357338 
z"/>
<path fill="#80C4D5" opacity="1.000000" stroke="none" 
	d="
M45.168087,122.286255 
	C45.037941,121.316032 45.028061,120.615044 44.996925,119.564484 
	C45.385391,118.883682 45.770714,118.925400 46.150795,119.637344 
	C46.436527,120.774971 46.706322,121.566017 46.955376,122.674500 
	C46.385876,122.846451 45.837116,122.700974 45.168087,122.286255 
z"/>
<path fill="#4990AB" opacity="1.000000" stroke="none" 
	d="
M122.164398,57.297012 
	C122.035721,56.753227 122.008537,56.560364 121.872452,56.094917 
	C122.358177,55.615566 122.952820,55.408810 123.861511,55.304897 
	C124.175560,55.407742 124.097794,55.430927 124.057228,55.429874 
	C124.144028,55.890644 124.297356,56.343761 124.482437,57.150627 
	C124.385445,57.728828 124.278740,57.945892 123.823128,58.266743 
	C122.977974,58.285969 122.579674,58.037624 122.164398,57.297012 
z"/>
<path fill="#8CD8EC" opacity="1.000000" stroke="none" 
	d="
M123.696480,58.217567 
	C123.909233,57.402294 123.945091,56.838932 123.998810,55.852196 
	C125.099960,55.635773 125.076546,56.747963 125.679710,57.717522 
	C125.389053,58.616577 125.042351,59.191586 124.569458,60.085342 
	C124.250092,60.332859 124.056915,60.261631 123.689117,59.935360 
	C123.406960,59.276245 123.403145,58.872608 123.696480,58.217567 
z"/>
<path fill="#CFF0F7" opacity="1.000000" stroke="none" 
	d="
M126.545792,69.641617 
	C126.693817,70.182442 126.497696,70.510544 126.050308,70.987213 
	C125.256119,70.950348 124.713188,70.764915 124.072922,70.302628 
	C123.975578,70.025780 123.985245,70.010147 123.977203,70.019241 
	C124.609329,69.441223 125.356277,69.251808 126.545792,69.641617 
z"/>
<path fill="#0EA4E1" opacity="1.000000" stroke="none" 
	d="
M65.948395,84.139664 
	C65.612022,84.327599 65.324928,84.376778 64.605682,84.492249 
	C64.173531,84.558533 64.175476,84.561295 64.200462,84.591812 
	C64.467216,84.567055 64.708992,84.511787 65.463104,84.219727 
	C65.975456,83.982933 65.997658,84.000900 65.948395,84.139664 
z"/>
<path fill="#54575D" opacity="1.000000" stroke="none" 
	d="
M85.714737,91.688614 
	C85.453316,91.625717 85.497795,91.284721 85.628876,91.173309 
	C86.129311,91.191391 86.498680,91.320892 86.868042,91.450394 
	C86.570747,91.550766 86.273445,91.651131 85.714737,91.688614 
z"/>
<path fill="#DDF1F4" opacity="1.000000" stroke="none" 
	d="
M86.599152,27.516182 
	C86.227402,27.397570 86.161591,27.130981 86.048019,26.455290 
	C86.601677,26.158808 87.203087,26.271431 87.804504,26.384052 
	C87.504700,26.712101 87.204903,27.040154 86.599152,27.516182 
z"/>
<path fill="#274A54" opacity="1.000000" stroke="none" 
	d="
M84.845848,25.606033 
	C84.829300,25.854662 84.669296,25.920668 84.250198,25.966976 
	C83.991089,25.947275 83.925468,25.519730 83.888748,25.306585 
	C84.177887,25.094189 84.461342,25.204180 84.845848,25.606033 
z"/>
<path fill="#DDF1F4" opacity="1.000000" stroke="none" 
	d="
M30.424332,69.141617 
	C30.106478,69.003716 30.025972,68.782402 29.846344,68.222031 
	C29.902462,67.795326 30.057701,67.707680 30.472801,67.683128 
	C30.732662,67.746216 31.085413,68.088707 31.259930,68.262505 
	C31.176857,68.643600 30.919270,68.850906 30.424332,69.141617 
z"/>
<path fill="#54575D" opacity="1.000000" stroke="none" 
	d="
M73.109940,92.680237 
	C73.180374,92.483566 73.340973,92.411453 73.738525,92.455933 
	C73.975487,92.572517 73.639595,92.858208 73.639595,92.858208 
	C73.639595,92.858208 73.200119,92.804802 73.109940,92.680237 
z"/>
<path fill="#54575D" opacity="1.000000" stroke="none" 
	d="
M89.993782,95.710831 
	C89.987236,95.607613 90.395248,95.745171 90.372910,95.863892 
	C90.350578,95.982620 90.000328,95.814056 89.993782,95.710831 
z"/>
<path fill="#54575D" opacity="1.000000" stroke="none" 
	d="
M77.117111,92.687042 
	C77.182053,92.486580 77.341125,92.408791 77.742104,92.440857 
	C77.984009,92.550705 77.654762,92.848717 77.654762,92.848717 
	C77.654762,92.848717 77.211243,92.809723 77.117111,92.687042 
z"/>
<path fill="#D4DBDF" opacity="1.000000" stroke="none" 
	d="
M37.570217,26.019693 
	C36.618385,24.554508 36.016083,23.070963 35.715157,21.298115 
	C38.915115,20.953766 38.112366,23.748749 39.241821,25.476210 
	C38.846745,25.896313 38.383244,25.948824 37.570217,26.019693 
z"/>
<path fill="#F1F3F4" opacity="1.000000" stroke="none" 
	d="
M49.644924,15.279332 
	C51.156216,14.747311 50.925419,15.741835 51.113232,16.675364 
	C49.554512,17.664267 49.685852,16.308718 49.644924,15.279332 
z"/>
<path fill="#F1F3F4" opacity="1.000000" stroke="none" 
	d="
M42.614288,21.306494 
	C42.076305,20.839935 41.411873,20.023418 43.122055,20.474775 
	C43.136112,20.852695 42.991611,20.987701 42.614288,21.306494 
z"/>
<path fill="#E4EDF1" opacity="1.000000" stroke="none" 
	d="
M120.708450,27.578587 
	C117.993462,27.453238 116.605614,26.374924 117.829483,23.836313 
	C118.643021,22.148825 120.174469,21.155064 121.852913,22.561312 
	C124.063454,24.413359 122.813232,26.037861 120.708450,27.578587 
z"/>
<path fill="#E5ECEE" opacity="1.000000" stroke="none" 
	d="
M59.373398,15.351198 
	C56.621819,16.664227 55.298836,15.718702 54.972797,13.210045 
	C54.738125,11.404390 55.848484,10.031137 57.401199,10.249166 
	C60.136730,10.633283 60.546867,12.690740 59.373398,15.351198 
z"/>
<path fill="#F1FEFD" opacity="1.000000" stroke="none" 
	d="
M93.507027,66.620567 
	C92.779617,67.454155 92.143021,68.102928 91.413025,67.203636 
	C90.987198,66.679039 91.010117,65.936989 91.613319,65.529633 
	C92.585365,64.873184 93.384018,64.994568 93.507027,66.620567 
z"/>
<path fill="#9ED7EB" opacity="1.000000" stroke="none" 
	d="
M83.014198,90.959045 
	C78.932678,91.134666 74.931694,91.110214 70.469147,91.110199 
	C70.007820,90.634315 70.008041,90.133987 70.060547,89.262070 
	C74.449524,89.191902 78.758621,90.296059 83.469528,89.542267 
	C83.565216,90.083923 83.329971,90.421440 83.014198,90.959045 
z"/>
<path fill="#34A5D0" opacity="1.000000" stroke="none" 
	d="
M65.986786,83.551117 
	C65.975456,83.982933 65.802940,84.075272 65.714890,84.110596 
	C65.396584,81.058632 63.006908,77.822998 66.605202,74.912567 
	C67.104500,75.012138 67.255501,75.173958 67.208733,75.602425 
	C65.073738,78.062355 66.337105,80.702744 65.986786,83.551117 
z"/>
<path fill="#379DC2" opacity="1.000000" stroke="none" 
	d="
M70.718552,71.100937 
	C70.234802,70.958893 70.187698,70.791130 70.086014,70.368256 
	C73.023369,70.079041 76.015312,70.044945 79.451569,70.044930 
	C79.895882,70.079018 80.036575,70.477226 80.109192,70.675049 
	C77.172943,70.940315 74.164078,71.007767 70.718552,71.100937 
z"/>
<path fill="#379DC2" opacity="1.000000" stroke="none" 
	d="
M67.309952,75.754272 
	C67.002747,75.699272 66.994530,75.529472 66.969910,75.104996 
	C67.030472,74.514832 67.107437,74.179337 67.216179,73.588326 
	C67.959900,72.931847 68.671852,72.530884 69.691879,72.078171 
	C70.005295,73.761749 68.857567,74.733994 67.309952,75.754272 
z"/>
<path fill="#A5EDFB" opacity="1.000000" stroke="none" 
	d="
M69.267693,88.609268 
	C67.714050,88.252556 68.131889,86.963402 67.969727,85.532333 
	C68.270515,84.689812 68.721039,84.485741 69.633667,84.792847 
	C69.965370,85.016655 70.035034,85.508316 70.008469,85.755173 
	C69.287140,86.664032 69.560982,87.551353 69.267693,88.609268 
z"/>
<path fill="#34A5D0" opacity="1.000000" stroke="none" 
	d="
M69.748833,84.735748 
	C69.514641,85.020500 69.063911,85.024345 68.281982,85.105156 
	C67.468536,85.035706 66.986298,84.889290 66.201591,84.510651 
	C65.899124,84.278419 65.937920,84.142105 65.976593,84.082748 
	C67.187614,84.167213 68.359955,84.311028 69.748833,84.735748 
z"/>
<path fill="#9ED7EB" opacity="1.000000" stroke="none" 
	d="
M69.353149,88.890411 
	C69.232986,88.055443 69.367218,87.238411 69.741676,86.211700 
	C70.039070,86.725006 70.096245,87.447975 70.135422,88.532990 
	C69.947479,88.899460 69.777512,88.903900 69.353149,88.890411 
z"/>
<path fill="#64B6D0" opacity="1.000000" stroke="none" 
	d="
M50.003372,114.768692 
	C49.241619,115.004478 48.492771,114.999954 47.370052,115.017044 
	C46.197964,115.877281 45.203735,115.998352 43.764786,115.682587 
	C43.211411,115.366364 43.021534,115.189674 42.877403,114.626633 
	C44.968937,114.169556 47.014732,114.098831 49.498398,114.040939 
	C49.936264,114.053764 50.016285,114.528381 50.003372,114.768692 
z"/>
<path fill="#189ACD" opacity="1.000000" stroke="none" 
	d="
M30.699699,67.397644 
	C30.732662,67.746216 30.237488,67.789589 29.992355,67.836281 
	C28.763481,67.937561 27.779743,67.992157 26.426920,67.997665 
	C26.287878,65.119759 25.082827,62.015972 27.841143,59.305782 
	C28.993229,58.429077 29.702763,58.908669 30.574902,59.812634 
	C30.924736,60.811207 31.072010,61.548191 31.347260,62.640041 
	C31.276455,63.411251 31.106594,63.839073 30.878433,64.612869 
	C30.749718,65.647926 30.708229,66.348503 30.699699,67.397644 
z"/>
<path fill="#64A8C6" opacity="1.000000" stroke="none" 
	d="
M30.909046,59.724571 
	C30.047478,59.785213 29.317490,59.496201 28.309557,59.091850 
	C28.019405,57.909096 28.007198,56.841686 27.999434,55.373215 
	C30.541706,55.387497 30.049385,57.892845 30.909046,59.724571 
z"/>
<path fill="#64B6D0" opacity="1.000000" stroke="none" 
	d="
M31.055700,64.881378 
	C30.023058,64.292206 30.160793,63.691727 31.188126,63.061256 
	C32.060925,63.656025 31.976566,64.260071 31.055700,64.881378 
z"/>
<path fill="#2E9DCA" opacity="1.000000" stroke="none" 
	d="
M105.200256,118.875610 
	C104.029999,120.521561 103.032669,121.894867 101.958710,123.588600 
	C98.486061,123.123123 99.584412,120.715965 100.778214,119.315887 
	C101.785286,118.134834 101.744499,117.052025 101.982971,115.450256 
	C102.012596,115.057365 102.049751,115.072739 102.067970,115.064240 
	C102.205391,114.935860 102.324593,114.815971 102.686089,114.621155 
	C103.697960,114.552643 104.467552,114.559044 105.620590,114.507690 
	C106.004044,114.449936 106.066635,114.681747 106.069977,114.801758 
	C106.613564,116.295967 105.647125,117.383614 105.200256,118.875610 
z"/>
<path fill="#379DC2" opacity="1.000000" stroke="none" 
	d="
M42.518150,114.243652 
	C42.923141,114.240280 42.965233,114.654785 42.987019,114.861954 
	C43.625572,115.787781 43.762810,116.599503 43.212090,117.833954 
	C42.502003,118.231377 42.059059,118.287735 41.290329,118.434021 
	C40.783897,116.946968 39.989067,115.205032 42.518150,114.243652 
z"/>
<path fill="#ABE0E9" opacity="1.000000" stroke="none" 
	d="
M102.785782,114.459045 
	C102.928375,114.546242 102.532158,114.842972 102.309174,114.949356 
	C102.271858,114.827782 102.457520,114.599808 102.785782,114.459045 
z"/>
<path fill="#35A4C6" opacity="1.000000" stroke="none" 
	d="
M126.926254,69.550323 
	C126.155975,69.852386 125.422012,69.850449 124.328606,69.938423 
	C124.992928,67.881950 122.758583,67.200951 122.006393,65.474365 
	C121.406914,63.817810 121.935341,62.833099 123.212311,61.866203 
	C124.651550,61.975197 124.299789,62.994267 124.813614,63.576462 
	C126.932877,64.105949 126.938263,65.707596 127.080040,67.650307 
	C127.072929,68.440178 127.017754,68.843246 126.926254,69.550323 
z"/>
<path fill="#129FD5" opacity="1.000000" stroke="none" 
	d="
M124.300171,62.229607 
	C123.392677,62.856583 122.796295,63.702629 122.067810,64.837936 
	C121.341454,64.620735 120.747192,64.114281 120.021515,63.342972 
	C120.412384,61.166916 119.178093,58.795200 121.730118,57.137482 
	C122.367790,57.084175 122.623634,57.284786 122.950607,57.762283 
	C123.522148,58.398487 123.457146,58.993309 123.718262,59.769691 
	C123.847939,60.017056 124.131432,60.233658 124.287346,60.318871 
	C124.519211,60.683495 124.565826,60.967716 124.606308,61.472328 
	C124.623421,61.941494 124.617348,62.195087 124.300171,62.229607 
z"/>
<path fill="#23A7DC" opacity="1.000000" stroke="none" 
	d="
M76.626907,26.942600 
	C78.758003,26.992758 80.456032,27.090332 80.989197,29.493500 
	C80.230965,30.731150 79.039810,30.730726 77.472885,30.955143 
	C76.663986,31.383686 76.215538,31.491831 75.453636,31.166668 
	C74.529510,30.085203 73.596527,30.490705 72.452164,30.356770 
	C71.524963,26.826965 73.877197,26.911940 76.626907,26.942600 
z"/>
<path fill="#8DBECF" opacity="1.000000" stroke="none" 
	d="
M75.157173,31.232189 
	C75.603630,30.945028 76.018250,30.972609 76.744217,31.030684 
	C76.793808,31.596041 76.656792,32.424164 76.242477,32.600391 
	C75.534576,32.901501 75.218613,32.214989 75.157173,31.232189 
z"/>
<path fill="#05A0E9" opacity="1.000000" stroke="none" 
	d="
M105.355164,119.116226 
	C104.163826,117.718040 103.875748,116.390633 105.881653,115.180283 
	C106.489891,114.905800 106.906464,114.889816 107.635010,114.906174 
	C108.273758,115.259262 108.657097,115.487343 109.340744,115.863510 
	C109.568680,116.268394 109.544998,116.445412 109.378586,116.849152 
	C108.510216,117.421974 108.228760,118.281876 107.230919,118.761597 
	C106.551315,118.978836 106.117157,119.031525 105.355164,119.116226 
z"/>
<path fill="#2E9DCA" opacity="1.000000" stroke="none" 
	d="
M107.316391,118.979889 
	C107.535629,118.356010 108.085785,117.785881 108.935898,117.145813 
	C109.219933,117.508820 109.204002,117.941765 109.087601,118.684547 
	C108.540527,119.007469 108.093918,119.020554 107.316391,118.979889 
z"/>
<path fill="#2E9DCA" opacity="1.000000" stroke="none" 
	d="
M109.675781,115.839973 
	C109.175896,115.898758 108.759430,115.706139 108.144974,115.226013 
	C108.682495,114.788765 109.381042,114.742096 109.675781,115.839973 
z"/>
<path fill="#0EA2E1" opacity="1.000000" stroke="none" 
	d="
M43.102592,118.429665 
	C42.960716,117.397507 42.976486,116.620003 43.000530,115.455811 
	C44.071892,115.050537 45.134975,115.031944 46.597122,115.026009 
	C48.340218,116.717010 51.330025,118.433830 46.523735,119.980324 
	C45.936058,119.743912 45.705383,119.503899 45.225182,119.239403 
	C44.403858,119.038040 43.832050,118.861176 43.102592,118.429665 
z"/>
<path fill="#8CD8EC" opacity="1.000000" stroke="none" 
	d="
M124.036713,62.288761 
	C123.989067,62.010536 124.299782,61.828178 124.464645,61.758041 
	C124.748505,61.886570 124.867516,62.085239 125.153015,62.590107 
	C125.319489,62.896305 125.183517,63.181751 125.124969,63.324928 
	C124.882774,63.672573 124.699120,63.877041 124.515465,64.081512 
	C124.371758,63.576672 124.228058,63.071827 124.036713,62.288761 
z"/>
<path fill="#35A4C6" opacity="1.000000" stroke="none" 
	d="
M123.886536,59.676506 
	C123.587578,59.529041 123.327209,59.041031 123.068810,58.264832 
	C123.070778,57.976643 123.472633,57.977558 123.673004,57.971611 
	C123.890625,58.422424 123.907875,58.879192 123.886536,59.676506 
z"/>
</svg>